<svg width="22" height="22" viewBox="0 0 22 22" fill="none" xmlns="http://www.w3.org/2000/svg">
<path d="M14.5729 13.8016C15.0928 13.5223 15.6879 13.3633 16.3217 13.3633H16.3238C16.3883 13.3633 16.4184 13.2859 16.3711 13.243C15.712 12.6515 14.9591 12.1737 14.1432 11.8293C14.1346 11.825 14.126 11.8229 14.1174 11.8186C15.4516 10.8496 16.3195 9.2748 16.3195 7.49805C16.3195 4.55469 13.9391 2.16992 11.0021 2.16992C8.06523 2.16992 5.68691 4.55469 5.68691 7.49805C5.68691 9.2748 6.55488 10.8496 7.89121 11.8186C7.88262 11.8229 7.87402 11.825 7.86543 11.8293C6.90508 12.2354 6.04356 12.8176 5.30234 13.5609C4.56541 14.2965 3.97872 15.1685 3.575 16.1283C3.17778 17.0682 2.96341 18.0752 2.94336 19.0953C2.94279 19.1182 2.94681 19.1411 2.95519 19.1624C2.96357 19.1838 2.97614 19.2032 2.99216 19.2196C3.00817 19.2361 3.02732 19.2491 3.04845 19.258C3.06959 19.2669 3.0923 19.2715 3.11523 19.2715H4.40215C4.49453 19.2715 4.57188 19.1963 4.57402 19.1039C4.61699 17.4453 5.28086 15.892 6.45606 14.7146C7.66992 13.4965 9.28555 12.8262 11.0043 12.8262C12.2225 12.8262 13.3912 13.1635 14.3988 13.7951C14.4247 13.8114 14.4544 13.8205 14.485 13.8217C14.5155 13.8228 14.5458 13.8159 14.5729 13.8016ZM11.0043 11.1934C10.0203 11.1934 9.09434 10.8088 8.39609 10.1105C8.05255 9.76789 7.7802 9.36065 7.59473 8.91227C7.40926 8.4639 7.31433 7.98326 7.31543 7.49805C7.31543 6.51191 7.7 5.58379 8.39609 4.88555C9.09219 4.1873 10.0182 3.80273 11.0043 3.80273C11.9904 3.80273 12.9143 4.1873 13.6125 4.88555C13.956 5.2282 14.2284 5.63545 14.4139 6.08382C14.5993 6.53219 14.6943 7.01283 14.6932 7.49805C14.6932 8.48418 14.3086 9.4123 13.6125 10.1105C12.9143 10.8088 11.9883 11.1934 11.0043 11.1934ZM18.9062 16.3066H17.1016V14.502C17.1016 14.4074 17.0242 14.3301 16.9297 14.3301H15.7266C15.632 14.3301 15.5547 14.4074 15.5547 14.502V16.3066H13.75C13.6555 16.3066 13.5781 16.384 13.5781 16.4785V17.6816C13.5781 17.7762 13.6555 17.8535 13.75 17.8535H15.5547V19.6582C15.5547 19.7527 15.632 19.8301 15.7266 19.8301H16.9297C17.0242 19.8301 17.1016 19.7527 17.1016 19.6582V17.8535H18.9062C19.0008 17.8535 19.0781 17.7762 19.0781 17.6816V16.4785C19.0781 16.384 19.0008 16.3066 18.9062 16.3066Z" fill="white"/>
</svg>
