<svg width="18" height="19" viewBox="0 0 18 19" fill="none" xmlns="http://www.w3.org/2000/svg">
<g clip-path="url(#clip0)">
<path d="M17.75 18.55L13.1563 14.7085L13.7075 16.2451H2.4375C1.85734 16.2451 1.30094 16.0428 0.890704 15.6826C0.480468 15.3224 0.25 14.8338 0.25 14.3244V2.8C0.25 2.29059 0.480468 1.80205 0.890704 1.44184C1.30094 1.08163 1.85734 0.879272 2.4375 0.879272H15.5625C16.1427 0.879272 16.6991 1.08163 17.1093 1.44184C17.5195 1.80205 17.75 2.29059 17.75 2.8V18.55ZM9 5.33537C6.655 5.33537 5.01 6.21891 5.01 6.21891C5.91125 5.51208 7.48625 5.10488 7.48625 5.10488L7.3375 4.97427C5.85875 4.99732 4.52 5.89622 4.52 5.89622C3.015 8.6544 3.11125 11.0361 3.11125 11.0361C4.33625 12.4267 6.15625 12.3268 6.15625 12.3268L6.7775 11.6354C5.68375 11.4279 4.9925 10.5751 4.9925 10.5751C4.9925 10.5751 6.6375 11.5585 9 11.5585C11.3625 11.5585 13.0075 10.5751 13.0075 10.5751C13.0075 10.5751 12.3163 11.4279 11.2225 11.6354L11.8438 12.3268C11.8438 12.3268 13.6638 12.4267 14.8888 11.0361C14.8888 11.0361 14.985 8.6544 13.48 5.89622C13.48 5.89622 12.1413 4.99732 10.6625 4.97427L10.5138 5.10488C10.5138 5.10488 12.0888 5.51208 12.99 6.21891C12.99 6.21891 11.345 5.33537 9 5.33537ZM7.18875 8.2472C7.7575 8.2472 8.22125 8.68513 8.2125 9.22293C8.2125 9.75305 7.7575 10.1987 7.18875 10.1987C6.62875 10.1987 6.17375 9.75305 6.17375 9.22293C6.17375 8.68513 6.62 8.2472 7.18875 8.2472ZM10.8375 8.2472C11.4063 8.2472 11.8613 8.68513 11.8613 9.22293C11.8613 9.75305 11.4063 10.1987 10.8375 10.1987C10.2775 10.1987 9.8225 9.75305 9.8225 9.22293C9.8225 8.68513 10.2688 8.2472 10.8375 8.2472Z" fill="#5C7A90"/>
</g>
<defs>
<clipPath id="clip0">
<rect width="18" height="18" fill="white" transform="translate(0 0.550049)"/>
</clipPath>
</defs>
</svg>
