<svg width="22" height="22" viewBox="0 0 22 22" fill="none" xmlns="http://www.w3.org/2000/svg">
<path d="M14.4375 2.75C13.2048 2.75 12.0876 2.981 11.2145 3.41619C10.3421 3.85137 9.625 4.56019 9.625 5.5V8.25C9.625 8.33869 9.65456 8.42462 9.66831 8.50781C8.98014 8.33294 8.27253 8.24631 7.5625 8.25C6.32981 8.25 5.21262 8.481 4.3395 8.91619C3.46706 9.35138 2.75 10.0602 2.75 11V16.5C2.75 17.4398 3.46706 18.1486 4.34019 18.5838C5.21263 19.019 6.32981 19.25 7.5625 19.25C8.79519 19.25 9.91237 19.019 10.7855 18.5838C11.6572 18.1486 12.375 17.4398 12.375 16.5V16.2209C13.0475 16.4027 13.7408 16.4965 14.4375 16.5C15.6702 16.5 16.7874 16.269 17.6605 15.8338C18.5322 15.3986 19.25 14.6898 19.25 13.75V5.5C19.25 4.56019 18.5329 3.85137 17.6598 3.41619C16.7881 2.981 15.6709 2.75 14.4375 2.75ZM14.4375 4.125C15.4846 4.125 16.4168 4.3505 17.0369 4.66194C17.6578 4.97338 17.875 5.30131 17.875 5.5C17.875 5.69937 17.6578 6.02662 17.0369 6.33806C16.4175 6.6495 15.4846 6.875 14.4375 6.875C13.3904 6.875 12.4582 6.6495 11.8381 6.33806C11.2172 6.02662 11 5.69869 11 5.5C11 5.30063 11.2172 4.97338 11.8381 4.66194C12.4575 4.3505 13.3904 4.125 14.4375 4.125ZM11 7.45525C11.0722 7.49512 11.1396 7.54669 11.2152 7.58381C12.0876 8.019 13.2048 8.25 14.4375 8.25C15.6702 8.25 16.7874 8.019 17.6605 7.58381C17.7354 7.54669 17.8028 7.49512 17.875 7.45525V8.25C17.875 8.44938 17.6578 8.77662 17.0369 9.08806C16.4168 9.3995 15.4846 9.625 14.4375 9.625C13.3904 9.625 12.4582 9.3995 11.8381 9.08806C11.2172 8.77662 11 8.44869 11 8.25V7.45525ZM7.5625 9.625C8.60956 9.625 9.54181 9.8505 10.1619 10.1619C10.7828 10.4734 11 10.8013 11 11C11 11.1994 10.7828 11.5266 10.1619 11.8381C9.54181 12.1495 8.60956 12.375 7.5625 12.375C6.51544 12.375 5.58319 12.1495 4.96306 11.8381C4.34225 11.5266 4.125 11.1987 4.125 11C4.125 10.8006 4.34225 10.4734 4.96306 10.1619C5.5825 9.8505 6.51544 9.625 7.5625 9.625ZM17.875 10.2052V11C17.875 11.1994 17.6578 11.5266 17.0369 11.8381C16.4168 12.1495 15.4846 12.375 14.4375 12.375C13.7372 12.3788 13.0408 12.2699 12.375 12.0526V11C12.375 10.9113 12.3454 10.8254 12.3317 10.7422C12.9711 10.9086 13.6799 11 14.4375 11C15.6702 11 16.7874 10.769 17.6605 10.3338C17.7354 10.2967 17.8028 10.2451 17.875 10.2052ZM4.125 12.9552C4.19719 12.9951 4.26456 13.0467 4.34019 13.0838C5.21263 13.519 6.32981 13.75 7.5625 13.75C8.79519 13.75 9.91237 13.519 10.7855 13.0838C10.8604 13.0467 10.9278 12.9951 11 12.9552V13.75C11 13.9494 10.7828 14.2766 10.1619 14.5881C9.54181 14.8995 8.60956 15.125 7.5625 15.125C6.51544 15.125 5.58319 14.8995 4.96306 14.5881C4.34225 14.2766 4.125 13.9487 4.125 13.75V12.9552ZM17.875 12.9552V13.75C17.875 13.9494 17.6578 14.2766 17.0369 14.5881C16.4168 14.8995 15.4846 15.125 14.4375 15.125C13.6558 15.125 12.9497 15.015 12.375 14.8239V13.4922C13.0061 13.6586 13.6936 13.75 14.4375 13.75C15.6702 13.75 16.7874 13.519 17.6605 13.0838C17.7354 13.0467 17.8028 12.9951 17.875 12.9552ZM4.125 15.7052C4.19719 15.7451 4.26456 15.7967 4.34019 15.8338C5.21263 16.269 6.32981 16.5 7.5625 16.5C8.79519 16.5 9.91237 16.269 10.7855 15.8338C10.8604 15.7967 10.9278 15.7451 11 15.7052V16.5C11 16.6994 10.7828 17.0266 10.1619 17.3381C9.54181 17.6495 8.60956 17.875 7.5625 17.875C6.51544 17.875 5.58319 17.6495 4.96306 17.3381C4.34225 17.0266 4.125 16.6987 4.125 16.5V15.7052Z" fill="white"/>
</svg>
