<svg width="22" height="22" viewBox="0 0 22 22" fill="none" xmlns="http://www.w3.org/2000/svg">
<path d="M18.9445 18.9443H3.05557C2.89349 18.9443 2.73805 19.0087 2.62345 19.1233C2.50884 19.2379 2.44446 19.3934 2.44446 19.5554C2.44446 19.7175 2.50884 19.873 2.62345 19.9876C2.73805 20.1022 2.89349 20.1666 3.05557 20.1666H18.9445C19.1065 20.1666 19.262 20.1022 19.3766 19.9876C19.4912 19.873 19.5556 19.7175 19.5556 19.5554C19.5556 19.3934 19.4912 19.2379 19.3766 19.1233C19.262 19.0087 19.1065 18.9443 18.9445 18.9443Z" fill="white"/>
<path d="M11 18.0154L17.4839 11.5316C17.584 11.4147 17.6363 11.2643 17.6304 11.1105C17.6244 10.9567 17.5607 10.8108 17.4519 10.7019C17.343 10.5931 17.1971 10.5293 17.0433 10.5234C16.8895 10.5175 16.7391 10.5698 16.6222 10.6699L11.6111 15.6749V3.05545C11.6111 2.89337 11.5467 2.73793 11.4321 2.62333C11.3175 2.50872 11.1621 2.44434 11 2.44434C10.8379 2.44434 10.6825 2.50872 10.5679 2.62333C10.4533 2.73793 10.3889 2.89337 10.3889 3.05545V15.6749L5.3839 10.6699C5.32912 10.6059 5.2617 10.554 5.18588 10.5173C5.11007 10.4806 5.02748 10.46 4.94332 10.4567C4.85916 10.4535 4.77524 10.4677 4.69681 10.4984C4.61839 10.5291 4.54717 10.5757 4.48761 10.6353C4.42806 10.6948 4.38146 10.7661 4.35073 10.8445C4.32001 10.9229 4.30583 11.0068 4.30908 11.091C4.31233 11.1751 4.33294 11.2577 4.36962 11.3335C4.40631 11.4094 4.45826 11.4768 4.52223 11.5316L11 18.0154Z" fill="white"/>
</svg>
