<svg width="18" height="19" viewBox="0 0 18 19" fill="none" xmlns="http://www.w3.org/2000/svg">
<g clip-path="url(#clip0)">
<path d="M16.9908 0.86438H1.00918C0.624843 0.86438 0.314331 1.17489 0.314331 1.55923V17.5409C0.314331 17.9252 0.624843 18.2357 1.00918 18.2357H16.9908C17.3751 18.2357 17.6857 17.9252 17.6857 17.5409V1.55923C17.6857 1.17489 17.3751 0.86438 16.9908 0.86438ZM14.9844 5.93464H13.5969C12.509 5.93464 12.2984 6.45143 12.2984 7.21143V8.88559H14.8954L14.5566 11.5065H12.2984V18.2357H9.59062V11.5087H7.32583V8.88559H9.59062V6.95303C9.59062 4.70996 10.9608 3.48745 12.9628 3.48745C13.9226 3.48745 14.7456 3.55911 14.9866 3.59168V5.93464H14.9844Z" fill="#5C7A90"/>
</g>
<defs>
<clipPath id="clip0">
<rect width="18" height="18" fill="white" transform="translate(0 0.550049)"/>
</clipPath>
</defs>
</svg>
