<svg width="18" height="19" viewBox="0 0 18 19" fill="none" xmlns="http://www.w3.org/2000/svg">
<g clip-path="url(#clip0)">
<path d="M9.0015 0.550049C6.55519 0.550049 6.25031 0.561861 5.29294 0.602361C4.33162 0.649611 3.68137 0.798674 3.10762 1.02142C2.50713 1.24812 1.96331 1.60306 1.51406 2.06149C1.05435 2.50968 0.699223 3.05381 0.473999 3.65505C0.251249 4.2288 0.102187 4.87905 0.054937 5.84036C0.0116245 6.7983 0.00262451 7.10261 0.00262451 9.54892C0.00262451 11.9952 0.014437 12.3001 0.054937 13.2575C0.102187 14.216 0.251249 14.869 0.473999 15.4428C0.700698 16.0433 1.05563 16.5871 1.51406 17.0364C1.96226 17.4961 2.50639 17.8512 3.10762 18.0764C3.68137 18.2964 4.33444 18.4482 5.29294 18.4955C6.25087 18.5388 6.55519 18.5478 9.0015 18.5478C11.4478 18.5478 11.7527 18.536 12.7101 18.4955C13.6686 18.4482 14.3216 18.2958 14.8954 18.0764C15.4959 17.8497 16.0397 17.4948 16.4889 17.0364C16.9492 16.5886 17.3045 16.0444 17.529 15.4428C17.7489 14.869 17.9008 14.216 17.9481 13.2575C17.9914 12.2995 18.0004 11.9952 18.0004 9.54892C18.0004 7.10261 17.9886 6.79774 17.9481 5.84036C17.9008 4.88186 17.7484 4.22542 17.529 3.65505C17.3023 3.05456 16.9474 2.51073 16.4889 2.06149C16.0412 1.60119 15.497 1.24596 14.8954 1.02142C14.3216 0.798674 13.6686 0.649611 12.7101 0.602361C11.7521 0.559049 11.4478 0.550049 9.0015 0.550049ZM9.0015 2.17005C11.4039 2.17005 11.6908 2.18186 12.6403 2.22236C13.5161 2.26342 13.9931 2.40967 14.3098 2.53342C14.7013 2.67794 15.0557 2.90796 15.3471 3.20674C15.6453 3.49689 15.8745 3.85043 16.0176 4.24117C16.1413 4.55786 16.2876 5.03486 16.3286 5.91067C16.3691 6.86017 16.3809 7.14761 16.3809 9.54949C16.3809 11.9514 16.3691 12.2388 16.3252 13.1883C16.278 14.0641 16.1317 14.5411 16.0086 14.8578C15.8381 15.2802 15.648 15.5755 15.3341 15.895C15.0418 16.1919 14.6876 16.4209 14.2969 16.5655C13.9841 16.6893 13.5004 16.8355 12.6212 16.8766C11.6666 16.9171 11.3854 16.9289 8.97675 16.9289C6.56812 16.9289 6.28744 16.9171 5.33175 16.8732C4.45594 16.826 3.97275 16.6797 3.65606 16.5565C3.22856 16.3861 2.9355 16.196 2.62162 15.8821C2.30494 15.5654 2.10356 15.2639 1.94831 14.8449C1.82231 14.5321 1.67831 14.0484 1.63162 13.1692C1.59956 12.2259 1.58437 11.9334 1.58437 9.53599C1.58437 7.13974 1.59956 6.84667 1.63162 5.89155C1.67831 5.01236 1.82231 4.52974 1.94831 4.21586C2.10356 3.7878 2.3055 3.4953 2.62162 3.17861C2.93494 2.8653 3.22856 2.6628 3.65606 2.50417C3.97275 2.38099 4.44412 2.23474 5.32331 2.19086C6.27787 2.15655 6.55912 2.14417 8.96437 2.14417L9.0015 2.17005ZM9.0015 4.93024C8.39475 4.93001 7.79391 5.04936 7.23331 5.28145C6.67271 5.51354 6.16334 5.85382 5.7343 6.28285C5.30527 6.71189 4.96499 7.22126 4.7329 7.78186C4.50081 8.34246 4.38146 8.9433 4.38169 9.55005C4.38146 10.1568 4.50081 10.7576 4.7329 11.3182C4.96499 11.8788 5.30527 12.3882 5.7343 12.8172C6.16334 13.2463 6.67271 13.5866 7.23331 13.8187C7.79391 14.0507 8.39475 14.1701 9.0015 14.1699C9.60824 14.1701 10.2091 14.0507 10.7697 13.8187C11.3303 13.5866 11.8397 13.2463 12.2687 12.8172C12.6977 12.3882 13.038 11.8788 13.2701 11.3182C13.5022 10.7576 13.6215 10.1568 13.6213 9.55005C13.6215 8.9433 13.5022 8.34246 13.2701 7.78186C13.038 7.22126 12.6977 6.71189 12.2687 6.28285C11.8397 5.85382 11.3303 5.51354 10.7697 5.28145C10.2091 5.04936 9.60824 4.93001 9.0015 4.93024ZM9.0015 12.5499C7.34325 12.5499 6.00169 11.2083 6.00169 9.55005C6.00169 7.8918 7.34325 6.55024 9.0015 6.55024C10.6597 6.55024 12.0013 7.8918 12.0013 9.55005C12.0013 11.2083 10.6597 12.5499 9.0015 12.5499ZM14.8875 4.74574C14.8872 5.03242 14.7731 5.30727 14.5703 5.50988C14.3675 5.71249 14.0925 5.8263 13.8058 5.8263C13.6641 5.8263 13.5237 5.79838 13.3927 5.74413C13.2618 5.68988 13.1428 5.61037 13.0425 5.51014C12.9423 5.4099 12.8628 5.29091 12.8085 5.15994C12.7543 5.02898 12.7264 4.88862 12.7264 4.74686C12.7264 4.60511 12.7543 4.46474 12.8085 4.33378C12.8628 4.20282 12.9423 4.08382 13.0425 3.98358C13.1428 3.88335 13.2618 3.80384 13.3927 3.74959C13.5237 3.69534 13.6641 3.66742 13.8058 3.66742C14.4004 3.66742 14.8875 4.15117 14.8875 4.74574Z" fill="#5C7A90"/>
</g>
<defs>
<clipPath id="clip0">
<rect width="18" height="18" fill="white" transform="translate(0 0.550049)"/>
</clipPath>
</defs>
</svg>
