<svg width="28" height="28" viewBox="0 0 28 28" fill="none" xmlns="http://www.w3.org/2000/svg">
<path d="M26.4302 0.489014H1.56987C0.972002 0.489014 0.488983 0.972033 0.488983 1.5699V26.4302C0.488983 27.0281 0.972002 27.5111 1.56987 27.5111H26.4302C27.028 27.5111 27.511 27.0281 27.511 26.4302V1.5699C27.511 0.972033 27.028 0.489014 26.4302 0.489014ZM23.3091 8.37608H21.1507C19.4585 8.37608 19.1308 9.17998 19.1308 10.3622V12.9664H23.1706L22.6437 17.0434H19.1308V27.5111H14.9188V17.0468H11.3958V12.9664H14.9188V9.96025C14.9188 6.47102 17.0501 4.56934 20.1644 4.56934C21.6574 4.56934 22.9376 4.68081 23.3125 4.73148V8.37608H23.3091Z" fill="white"/>
</svg>
