<svg width="28" height="28" viewBox="0 0 28 28" fill="none" xmlns="http://www.w3.org/2000/svg">
<g clip-path="url(#clip0)">
<path d="M27.6111 28L20.4653 22.0244L21.3228 24.4146H3.79166C2.88919 24.4146 2.02368 24.0999 1.38554 23.5395C0.747391 22.9792 0.388885 22.2193 0.388885 21.4268V3.50001C0.388885 2.7076 0.747391 1.94764 1.38554 1.38731C2.02368 0.826993 2.88919 0.512207 3.79166 0.512207H24.2083C25.1108 0.512207 25.9763 0.826993 26.6145 1.38731C27.2526 1.94764 27.6111 2.7076 27.6111 3.50001V28ZM14 7.44391C10.3522 7.44391 7.79333 8.8183 7.79333 8.8183C9.19527 7.71879 11.6453 7.08538 11.6453 7.08538L11.4139 6.88221C9.11361 6.91806 7.03111 8.31635 7.03111 8.31635C4.69 12.6068 4.83972 16.3117 4.83972 16.3117C6.74527 18.4749 9.57639 18.3195 9.57639 18.3195L10.5428 17.2439C8.84139 16.9212 7.76611 15.5946 7.76611 15.5946C7.76611 15.5946 10.325 17.1244 14 17.1244C17.675 17.1244 20.2339 15.5946 20.2339 15.5946C20.2339 15.5946 19.1586 16.9212 17.4572 17.2439L18.4236 18.3195C18.4236 18.3195 21.2547 18.4749 23.1603 16.3117C23.1603 16.3117 23.31 12.6068 20.9689 8.31635C20.9689 8.31635 18.8864 6.91806 16.5861 6.88221L16.3547 7.08538C16.3547 7.08538 18.8047 7.71879 20.2067 8.8183C20.2067 8.8183 17.6478 7.44391 14 7.44391ZM11.1825 11.9734C12.0672 11.9734 12.7886 12.6546 12.775 13.4912C12.775 14.3159 12.0672 15.009 11.1825 15.009C10.3114 15.009 9.60361 14.3159 9.60361 13.4912C9.60361 12.6546 10.2978 11.9734 11.1825 11.9734ZM16.8583 11.9734C17.7431 11.9734 18.4508 12.6546 18.4508 13.4912C18.4508 14.3159 17.7431 15.009 16.8583 15.009C15.9872 15.009 15.2794 14.3159 15.2794 13.4912C15.2794 12.6546 15.9736 11.9734 16.8583 11.9734Z" fill="white"/>
</g>
<defs>
<clipPath id="clip0">
<rect width="28" height="28" fill="white"/>
</clipPath>
</defs>
</svg>
