<svg width="63" height="11" viewBox="0 0 63 11" fill="none" xmlns="http://www.w3.org/2000/svg">
<path d="M4.53 10.112C3.22333 10.112 2.206 9.73867 1.478 8.992C0.75 8.24533 0.386 7.172 0.386 5.772V0.199999H1.786V5.716C1.786 7.816 2.70533 8.866 4.544 8.866C5.44 8.866 6.126 8.60933 6.602 8.096C7.078 7.57333 7.316 6.78 7.316 5.716V0.199999H8.674V5.772C8.674 7.18133 8.31 8.25933 7.582 9.006C6.854 9.74333 5.83667 10.112 4.53 10.112ZM15.3662 0.199999C16.6356 0.199999 17.6342 0.503333 18.3622 1.11C19.0902 1.71667 19.4542 2.552 19.4542 3.616C19.4542 4.68 19.0902 5.51533 18.3622 6.122C17.6342 6.72867 16.6356 7.032 15.3662 7.032H12.9442V10H11.5442V0.199999H15.3662ZM15.3242 5.814C16.2109 5.814 16.8876 5.62733 17.3542 5.254C17.8209 4.87133 18.0542 4.32533 18.0542 3.616C18.0542 2.90667 17.8209 2.36533 17.3542 1.992C16.8876 1.60933 16.2109 1.418 15.3242 1.418H12.9442V5.814H15.3242Z" fill="#5EACFB"/>
<path d="M30.0757 0.199999V10H28.9277L23.0477 2.692V10H21.6477V0.199999H22.7957L28.6757 7.508V0.199999H30.0757ZM37.4331 10.112C36.4437 10.112 35.5524 9.89733 34.7591 9.468C33.9657 9.02933 33.3404 8.42733 32.8831 7.662C32.4351 6.89667 32.2111 6.04267 32.2111 5.1C32.2111 4.15733 32.4351 3.30333 32.8831 2.538C33.3404 1.77267 33.9657 1.17533 34.7591 0.746C35.5524 0.307333 36.4437 0.0879999 37.4331 0.0879999C38.4131 0.0879999 39.2997 0.307333 40.0931 0.746C40.8864 1.17533 41.5071 1.77267 41.9551 2.538C42.4031 3.294 42.6271 4.148 42.6271 5.1C42.6271 6.052 42.4031 6.91067 41.9551 7.676C41.5071 8.432 40.8864 9.02933 40.0931 9.468C39.2997 9.89733 38.4131 10.112 37.4331 10.112ZM37.4331 8.866C38.1517 8.866 38.7957 8.70267 39.3651 8.376C39.9437 8.04933 40.3964 7.60133 40.7231 7.032C41.0591 6.45333 41.2271 5.80933 41.2271 5.1C41.2271 4.39067 41.0591 3.75133 40.7231 3.182C40.3964 2.60333 39.9437 2.15067 39.3651 1.824C38.7957 1.49733 38.1517 1.334 37.4331 1.334C36.7144 1.334 36.0611 1.49733 35.4731 1.824C34.8944 2.15067 34.4371 2.60333 34.1011 3.182C33.7744 3.75133 33.6111 4.39067 33.6111 5.1C33.6111 5.80933 33.7744 6.45333 34.1011 7.032C34.4371 7.60133 34.8944 8.04933 35.4731 8.376C36.0611 8.70267 36.7144 8.866 37.4331 8.866ZM52.9644 0.199999L48.6664 10H47.2804L42.9684 0.199999H44.4804L48.0084 8.25L51.5644 0.199999H52.9644ZM60.1437 7.55H54.9357L53.8577 10H52.4157L56.8537 0.199999H58.2397L62.6917 10H61.2217L60.1437 7.55ZM59.6537 6.43L57.5397 1.628L55.4257 6.43H59.6537Z" fill="#7A8A9A"/>
</svg>
