<svg width="18" height="19" viewBox="0 0 18 19" fill="none" xmlns="http://www.w3.org/2000/svg">
<g clip-path="url(#clip0)">
<path d="M16.3125 0.550049H1.6875C0.759375 0.550049 0 1.30942 0 2.23755V16.8625C0 17.7907 0.759375 18.55 1.6875 18.55H16.3125C17.2406 18.55 18 17.7907 18 16.8625V2.23755C18 1.30942 17.2406 0.550049 16.3125 0.550049ZM14.5789 13.15L12.933 13.1748C12.933 13.1748 12.5775 13.2457 12.114 12.925C11.4986 12.5032 10.9181 11.4029 10.4648 11.5469C10.008 11.6909 10.0215 12.6787 10.0215 12.6787C10.0215 12.6787 10.0249 12.8902 9.91913 13.0015C9.80663 13.1242 9.58162 13.1489 9.58162 13.1489H8.847C8.847 13.1489 7.2225 13.2479 5.7915 11.7562C4.23 10.1317 2.853 6.90855 2.853 6.90855C2.853 6.90855 2.772 6.69705 2.85975 6.5958C2.95763 6.47992 3.222 6.47317 3.222 6.47317L4.98375 6.46305C4.98375 6.46305 5.14913 6.49117 5.26837 6.57892C5.36737 6.6498 5.41913 6.78592 5.41913 6.78592C5.41913 6.78592 5.70375 7.50705 6.08063 8.1573C6.81525 9.4263 7.1595 9.70417 7.40925 9.5703C7.7715 9.37342 7.66237 7.77367 7.66237 7.77367C7.66237 7.77367 7.66913 7.19317 7.48013 6.93667C7.33275 6.73642 7.05487 6.6768 6.93563 6.66217C6.83663 6.64755 6.99862 6.41917 7.21012 6.31455C7.52625 6.1593 8.08537 6.14917 8.74687 6.15592C9.25988 6.1593 9.41175 6.19417 9.612 6.2403C10.2206 6.38767 10.0125 6.95355 10.0125 8.31142C10.0125 8.74792 9.93488 9.3588 10.2476 9.55905C10.3815 9.6468 10.7111 9.57255 11.538 8.1708C11.9284 7.50592 12.2231 6.7263 12.2231 6.7263C12.2231 6.7263 12.2861 6.58567 12.3851 6.52605C12.4875 6.46642 12.6248 6.48442 12.6248 6.48442L14.4776 6.4743C14.4776 6.4743 15.0334 6.40792 15.1245 6.66105C15.219 6.9243 14.9175 7.53967 14.1615 8.5488C12.9206 10.2048 12.78 10.0495 13.8139 11.0058C14.7983 11.9204 15.0019 12.3659 15.0379 12.4222C15.4384 13.0972 14.5811 13.15 14.5811 13.15H14.5789Z" fill="#5C7A90"/>
</g>
<defs>
<clipPath id="clip0">
<rect width="18" height="18" fill="white" transform="translate(0 0.550049)"/>
</clipPath>
</defs>
</svg>
